<svg width="37.393066" height="44.399536" viewBox="0 0 37.3931 44.3995" fill="none" xmlns="http://www.w3.org/2000/svg" xmlns:xlink="http://www.w3.org/1999/xlink">
	<desc>
			Created with Pixso.
	</desc>
	<defs/>
	<path id="Vector" d="M22.89 0.33C20.13 -0.12 17.27 -0.11 14.5 0.33C6.1 1.62 0 8.72 0 17.23L0 37.27C0 37.99 0.32 38.68 0.89 39.13C1.46 39.59 2.22 39.75 2.93 39.59C4.34 39.27 5.79 39.13 7.25 39.17C9.02 39.22 10.79 39.53 12.51 40.11C12.69 41.32 13.36 42.4 14.39 43.09C15.67 43.94 17.16 44.39 18.69 44.39C20.22 44.39 21.72 43.94 22.99 43.09C24.03 42.4 24.7 41.32 24.87 40.11C26.59 39.53 28.36 39.21 30.14 39.17C32.8 39.09 35 39.66 36.36 40.15C36.45 40.18 36.53 40.19 36.62 40.19C36.78 40.19 36.94 40.15 37.07 40.05C37.27 39.91 37.39 39.68 37.39 39.43L37.39 17.22C37.39 8.72 31.29 1.6 22.88 0.32L22.89 0.33ZM14.74 1.83C17.35 1.42 20.05 1.42 22.66 1.83C23.61 1.98 24.52 2.21 25.4 2.51C24.69 5.91 21.9 8.41 18.7 8.41C15.5 8.41 12.71 5.91 12 2.51C12.88 2.21 13.79 1.98 14.74 1.83ZM18.93 34.3L18.48 34.3C12.28 34.19 7.23 28.87 7.23 22.43L7.23 16.7C8.08 16.82 8.99 16.84 10.67 16.56C12.41 16.27 13.72 15.8 14.87 15.38C16.23 14.88 17.31 14.49 18.72 14.54C20.08 14.5 21.16 14.89 22.52 15.38C23.68 15.8 24.99 16.27 26.72 16.56C28.4 16.84 29.31 16.82 30.16 16.7L30.16 22.43C30.16 28.86 25.12 34.19 18.92 34.3L18.93 34.3ZM22.16 41.81C20.1 43.18 17.31 43.18 15.25 41.81C14.47 41.29 14.01 40.43 14.01 39.5L14.01 34.91C15.4 35.48 16.9 35.81 18.48 35.84L18.94 35.84C20.51 35.81 22.01 35.48 23.4 34.92L23.4 39.51C23.4 40.44 22.93 41.3 22.16 41.82L22.16 41.81ZM35.88 38.38C34.42 37.96 32.43 37.59 30.12 37.64C28.38 37.69 26.64 37.99 24.94 38.51L24.94 34.18C28.96 31.89 31.71 27.47 31.71 22.44L31.71 15.81C31.71 15.59 31.61 15.38 31.44 15.23C31.27 15.09 31.04 15.03 30.82 15.06L30.66 15.09C29.63 15.25 28.9 15.38 26.99 15.06C25.4 14.8 24.21 14.37 23.06 13.95C21.66 13.44 20.35 12.97 18.74 13.02C17.09 12.97 15.77 13.45 14.37 13.95C13.22 14.37 12.03 14.8 10.44 15.06C8.53 15.38 7.8 15.25 6.77 15.09L6.61 15.06C6.39 15.02 6.17 15.09 5.99 15.23C5.82 15.38 5.72 15.59 5.72 15.81L5.72 22.44C5.72 27.46 8.46 31.88 12.49 34.18L12.49 38.51C10.79 37.99 9.05 37.69 7.31 37.64C5.74 37.6 4.16 37.75 2.63 38.1C2.36 38.16 2.09 38.1 1.87 37.93C1.75 37.84 1.55 37.63 1.55 37.27L1.55 17.23C1.55 10.98 5.16 5.57 10.58 3.09C11.53 7.06 14.88 9.95 18.72 9.95C22.57 9.95 25.91 7.06 26.86 3.09C32.27 5.57 35.9 10.98 35.9 17.23L35.9 38.38L35.88 38.38Z" fill="#4D2A14" fill-opacity="1.000000" fill-rule="nonzero"/>
</svg>
