<svg width="43.260742" height="43.482544" viewBox="0 0 43.2607 43.4825" fill="none" xmlns="http://www.w3.org/2000/svg" xmlns:xlink="http://www.w3.org/1999/xlink">
	<desc>
			Created with Pixso.
	</desc>
	<defs/>
	<path id="Vector" d="M43.13 35.89C42.84 34.71 42.04 33.79 40.76 33.14C39.89 32.7 39.37 32.16 39.21 31.55C38.93 30.41 39.88 29.08 40.5 28.19C40.58 28.08 40.66 27.96 40.73 27.86C41.53 26.7 42.52 25.25 42.32 22.39C42.12 19.52 39.61 17.94 36.92 16.67C35.09 15.81 35.28 13.88 35.42 12.47C35.44 12.28 35.45 12.1 35.47 11.94C35.61 9.73 35.4 7.44 31.18 3.76C27.13 0.23 21.9 0 21.68 0C21.67 0 21.58 0 21.57 0C21.35 0 16.13 0.23 12.07 3.77C7.85 7.45 7.64 9.74 7.79 11.95C7.8 12.11 7.81 12.28 7.83 12.48C7.97 13.89 8.16 15.82 6.33 16.68C3.64 17.95 1.13 19.52 0.93 22.39C0.73 25.25 1.72 26.7 2.52 27.87C2.59 27.97 2.67 28.08 2.75 28.19C3.38 29.08 4.32 30.41 4.04 31.55C3.88 32.17 3.37 32.7 2.49 33.14C1.21 33.79 0.41 34.71 0.12 35.89C-0.57 38.65 1.83 42.01 2.73 43.27C2.82 43.4 2.97 43.48 3.13 43.48C3.22 43.48 3.32 43.45 3.41 43.38C3.63 43.23 3.68 42.92 3.52 42.7C2.69 41.54 0.49 38.45 1.06 36.12C1.28 35.23 1.9 34.54 2.93 34.02C4.07 33.44 4.76 32.69 4.98 31.79C5.37 30.21 4.23 28.6 3.55 27.63C3.47 27.52 3.39 27.41 3.32 27.31C2.58 26.21 1.73 24.98 1.9 22.46C2.05 20.22 3.94 18.89 6.74 17.57C9.2 16.41 8.95 13.89 8.8 12.39C8.78 12.21 8.77 12.03 8.76 11.88C8.62 9.86 8.82 7.9 12.71 4.51C15.81 1.81 19.75 1.17 21.11 1.02L21.11 4.02C19.82 4.01 14.14 4.26 11.81 9.19C11.23 10.43 10.61 12.17 11.04 14.61C11.46 17 10.18 18.38 9.6 18.86C9.42 19.02 9.2 19.18 8.98 19.35C7.63 20.38 5.78 21.8 5.77 24.72C5.77 24.9 5.77 25.08 5.76 25.26C5.73 26.6 5.69 28.11 7.31 29.61C8.91 31.08 9.09 32.58 7.87 34.07L7.5 34.52C5.19 37.31 4.04 38.71 7.12 42.74C7.22 42.87 7.36 42.93 7.51 42.93C7.61 42.93 7.72 42.9 7.81 42.83C8.03 42.66 8.06 42.36 7.9 42.14C5.29 38.73 5.98 37.9 8.26 35.14L8.63 34.69C10.18 32.8 9.95 30.68 7.99 28.89C6.68 27.68 6.71 26.57 6.75 25.28C6.75 25.09 6.76 24.91 6.76 24.72C6.77 22.27 8.32 21.08 9.57 20.12C9.81 19.94 10.04 19.77 10.24 19.6C10.94 19.01 12.51 17.32 12 14.43C11.62 12.27 12.14 10.78 12.69 9.6C14.79 5.16 20.02 4.98 21.11 4.99L21.11 9.1C19.82 9.27 16.69 9.89 15.39 12.18C14.3 14.08 14.66 15.53 15 16.94C15.17 17.64 15.34 18.31 15.32 19.04C15.29 20.7 14.23 21.17 12.97 21.57L12.78 21.63C11.98 21.9 9.84 22.6 9.66 25.42C9.55 27.02 10.34 28.41 11.77 29.13C12.95 29.72 13.64 30.83 13.82 32.4C13.96 33.66 13.47 34.52 12.32 35.02C11.19 35.52 9.96 36.75 9.93 38.26C9.9 40.5 11.43 42.37 13.73 42.92C13.77 42.93 13.81 42.93 13.85 42.93C14.07 42.93 14.27 42.78 14.32 42.56C14.39 42.29 14.22 42.03 13.96 41.97C12.08 41.52 10.88 40.07 10.91 38.28C10.93 37.24 11.83 36.31 12.72 35.92C14.27 35.25 14.98 33.99 14.79 32.3C14.58 30.39 13.68 29 12.21 28.26C11.7 28 10.52 27.21 10.63 25.48C10.75 23.58 11.94 22.94 13.08 22.57L13.26 22.51C13.54 22.42 13.89 22.31 14.24 22.15C14.72 23.8 16.28 28.61 18.88 30.83L18.88 30.96C18.88 33.43 18.89 39.22 15.45 39.93C15.19 39.98 15.02 40.24 15.07 40.5C15.12 40.73 15.32 40.9 15.55 40.9C15.59 40.9 15.62 40.89 15.65 40.89C19.6 40.08 19.84 34.44 19.86 31.51C20.42 31.81 21.03 31.98 21.68 31.98C22.28 31.98 22.86 31.82 23.4 31.55C23.41 34.5 23.67 40.08 27.61 40.89C27.64 40.89 27.67 40.9 27.7 40.9C27.93 40.9 28.13 40.73 28.18 40.5C28.24 40.24 28.07 39.98 27.8 39.93C24.37 39.22 24.38 33.43 24.38 30.96L24.38 30.87C26.97 28.68 28.57 23.86 29.06 22.17C29.39 22.32 29.72 22.42 29.98 22.51L30.16 22.56C31.31 22.94 32.5 23.58 32.61 25.48C32.73 27.21 31.55 27.99 31.04 28.25C29.56 29 28.67 30.39 28.45 32.29C28.26 33.98 28.98 35.24 30.53 35.92C31.41 36.3 32.31 37.24 32.33 38.28C32.36 40.07 31.17 41.52 29.29 41.96C29.02 42.03 28.86 42.29 28.92 42.55C28.98 42.78 29.18 42.93 29.4 42.93C29.44 42.93 29.47 42.92 29.51 42.91C31.82 42.37 33.35 40.49 33.31 38.26C33.29 36.74 32.06 35.52 30.92 35.02C29.78 34.51 29.29 33.66 29.43 32.4C29.6 30.82 30.3 29.72 31.48 29.13C32.9 28.41 33.69 27.02 33.59 25.41C33.41 22.59 31.27 21.89 30.46 21.63L30.28 21.57C29.01 21.17 27.95 20.7 27.92 19.03C27.91 18.31 28.07 17.64 28.24 16.93C28.59 15.53 28.94 14.07 27.86 12.17C26.54 9.85 23.35 9.25 22.09 9.09L22.09 4.99C23.06 4.98 28.42 5.1 30.56 9.6C31.11 10.78 31.63 12.27 31.25 14.43C30.74 17.32 32.31 19.01 33.01 19.6C33.21 19.77 33.43 19.94 33.67 20.12C34.93 21.08 36.48 22.27 36.49 24.72C36.49 24.91 36.49 25.09 36.5 25.28C36.53 26.57 36.56 27.68 35.26 28.89C33.3 30.69 33.06 32.8 34.61 34.69L34.99 35.14C37.26 37.9 37.95 38.73 35.34 42.14C35.18 42.36 35.22 42.67 35.44 42.83C35.52 42.9 35.63 42.93 35.73 42.93C35.88 42.93 36.03 42.87 36.12 42.74C39.21 38.71 38.05 37.31 35.74 34.52L35.38 34.06C34.15 32.57 34.34 31.07 35.93 29.61C37.56 28.11 37.52 26.59 37.48 25.26C37.48 25.08 37.47 24.9 37.47 24.72C37.46 21.79 35.62 20.38 34.27 19.35C34.04 19.18 33.83 19.02 33.64 18.86C33.07 18.37 31.79 16.99 32.21 14.61C32.64 12.17 32.02 10.43 31.44 9.19C29.09 4.19 23.28 4 22.09 4.01L22.09 1.01C23.41 1.15 27.41 1.77 30.55 4.51C34.43 7.9 34.63 9.85 34.5 11.88C34.49 12.03 34.47 12.2 34.45 12.38C34.3 13.88 34.05 16.4 36.51 17.56C39.31 18.88 41.2 20.22 41.36 22.45C41.53 24.98 40.68 26.21 39.93 27.31C39.86 27.41 39.79 27.51 39.71 27.63C39.02 28.59 37.88 30.21 38.27 31.79C38.5 32.69 39.19 33.44 40.33 34.01C41.36 34.53 41.97 35.22 42.19 36.12C42.77 38.45 40.56 41.54 39.73 42.7C39.58 42.92 39.63 43.22 39.85 43.38C39.93 43.44 40.03 43.47 40.13 43.47C40.28 43.47 40.43 43.4 40.53 43.27C41.42 42.01 43.82 38.65 43.13 35.89ZM27.01 12.66C27.9 14.22 27.62 15.37 27.3 16.7C27.12 17.44 26.93 18.2 26.95 19.06C26.97 20.37 27.53 21.16 28.19 21.67C27.39 24.54 24.93 31 21.68 31C18.34 31 15.89 24.48 15.12 21.62C15.76 21.11 16.28 20.33 16.31 19.05C16.32 18.2 16.14 17.43 15.96 16.7C15.64 15.37 15.35 14.22 16.24 12.65C17.49 10.47 21.02 10.08 21.63 10.03C22.24 10.08 25.77 10.47 27.01 12.66Z" fill="#4D2A14" fill-opacity="1.000000" fill-rule="nonzero"/>
</svg>
