<svg width="46.000000" height="46.000000" viewBox="0 0 46 46" fill="none" xmlns="http://www.w3.org/2000/svg" xmlns:xlink="http://www.w3.org/1999/xlink">
	<desc>
			Created with Pixso.
	</desc>
	<defs>
		<clipPath id="clip162_579">
			<rect id="fi_14612983" rx="0.000000" width="45.000000" height="45.000000" transform="translate(0.500000 0.500000)" fill="white" fill-opacity="0"/>
		</clipPath>
	</defs>
	<rect id="fi_14612983" rx="0.000000" width="45.000000" height="45.000000" transform="translate(0.500000 0.500000)" fill="#FFFFFF" fill-opacity="0"/>
	<g clip-path="url(#clip162_579)">
		<path id="Vector" d="M41.85 40.81C36.24 40.95 34.31 37.21 34.78 33.69C34.81 33.51 34.76 33.32 34.65 33.17C34.54 33.01 34.37 32.91 34.19 32.88C34 32.85 33.81 32.89 33.66 33C33.5 33.11 33.4 33.27 33.36 33.46C32.75 37.64 35.19 42.4 41.85 42.25C42.04 42.24 42.22 42.17 42.35 42.03C42.48 41.9 42.55 41.72 42.55 41.53C42.55 41.34 42.48 41.16 42.35 41.03C42.22 40.89 42.04 40.81 41.85 40.81Z" fill="#4D2A14" fill-opacity="1.000000" fill-rule="nonzero"/>
		<path id="Vector" d="M27.57 29.77C27.99 29.35 28.22 28.78 28.22 28.19C28.22 27.61 27.99 27.04 27.57 26.62L24.67 23.72C24 23.06 24.19 22.19 24.59 21.42L29.75 26.58C29.88 26.71 30.06 26.78 30.25 26.78C30.44 26.78 30.62 26.7 30.75 26.57C30.89 26.43 30.96 26.25 30.96 26.07C30.97 25.88 30.89 25.7 30.76 25.56L25.28 20.08C25.52 19.67 25.8 19.22 26.13 18.71L31.87 24.45C32.01 24.59 32.19 24.66 32.38 24.66C32.57 24.66 32.75 24.58 32.89 24.45C33.02 24.32 33.1 24.13 33.1 23.94C33.1 23.75 33.02 23.57 32.89 23.43L26.97 17.52C27.27 17.12 27.58 16.7 27.93 16.26L34 22.32C34.13 22.46 34.32 22.53 34.51 22.53C34.7 22.53 34.88 22.46 35.01 22.32C35.15 22.19 35.22 22.01 35.22 21.82C35.22 21.63 35.15 21.44 35.02 21.31L31.82 18.11C32.43 17.95 33.04 17.83 33.66 17.74L36.12 20.2C36.26 20.33 36.44 20.4 36.63 20.4C36.82 20.39 37 20.32 37.13 20.19C37.26 20.05 37.34 19.87 37.34 19.69C37.34 19.5 37.27 19.32 37.14 19.18L35.58 17.62C40.04 17.71 41.5 20.82 40.72 25.99C40.69 26.18 40.74 26.37 40.85 26.52C40.97 26.67 41.14 26.78 41.33 26.8C41.42 26.82 41.51 26.81 41.61 26.79C41.7 26.77 41.78 26.73 41.86 26.67C42.01 26.56 42.11 26.39 42.14 26.2C42.75 21.69 42.03 18.78 39.3 17.1C39.29 17.09 32.89 10.68 32.89 10.68C33.25 10.31 33.61 9.94 33.99 9.56L39.32 14.88C39.73 15.29 40.3 15.52 40.88 15.52C41.47 15.51 42.03 15.28 42.44 14.86C42.85 14.45 43.09 13.89 43.09 13.31C43.09 12.72 42.87 12.16 42.46 11.74L35.55 4.83C34.85 4.13 33.9 3.74 32.91 3.74C31.92 3.74 30.98 4.13 30.28 4.83L4.14 30.97C1.23 33.81 3.71 38.91 7.74 38.35C8.4 38.28 9.02 38.05 9.58 37.69C10.13 37.33 10.59 36.85 10.93 36.28C12.49 33.68 14.37 31.28 16.51 29.13L19.07 26.58C19.36 26.29 19.75 26.13 20.15 26.13C20.56 26.13 20.95 26.29 21.24 26.58L24.43 29.77C24.85 30.17 25.42 30.4 26 30.4C26.59 30.4 27.15 30.17 27.57 29.77ZM30.66 16.95L28.84 15.14C29.16 14.76 29.51 14.36 29.87 13.94L32.42 16.49C31.82 16.61 31.24 16.77 30.66 16.95ZM36.41 16.23C35.67 16.16 34.93 16.16 34.19 16.23L30.83 12.87C31.17 12.5 31.52 12.11 31.9 11.72L36.41 16.23ZM18.05 25.56C14.98 28.53 11.84 31.83 9.7 35.54C9.49 35.89 9.2 36.2 8.87 36.43C8.53 36.67 8.14 36.83 7.74 36.9C7.33 36.98 6.92 36.96 6.52 36.87C6.12 36.77 5.74 36.59 5.42 36.33C5.1 36.08 4.83 35.76 4.64 35.4C4.44 35.03 4.33 34.63 4.31 34.22C4.28 33.81 4.34 33.4 4.49 33.01C4.64 32.63 4.86 32.28 5.15 31.99L31.29 5.85C31.73 5.42 32.31 5.18 32.91 5.18C33.52 5.18 34.1 5.42 34.53 5.85L41.44 12.76C41.59 12.9 41.67 13.1 41.67 13.31C41.67 13.52 41.59 13.72 41.44 13.87C41.29 14.01 41.1 14.1 40.89 14.1C40.68 14.1 40.48 14.01 40.33 13.87L35.01 8.54C34.73 8.27 34.36 8.12 33.97 8.12C33.58 8.12 33.21 8.28 32.93 8.55C26.19 15.51 20.7 22.05 23.65 24.73L26.56 27.64C26.7 27.79 26.78 27.99 26.77 28.19C26.77 28.4 26.69 28.59 26.54 28.74C26.4 28.88 26.2 28.96 26 28.97C25.79 28.97 25.6 28.89 25.45 28.75L22.26 25.56C21.7 25 20.94 24.69 20.15 24.69C19.37 24.69 18.61 25 18.05 25.56Z" fill="#4D2A14" fill-opacity="1.000000" fill-rule="nonzero"/>
		<path id="Vector" d="M38.7 36.93C38.88 36.97 39.08 36.95 39.24 36.85C39.4 36.75 39.52 36.59 39.57 36.41C41.3 30.19 39.55 25.23 34.55 25.25C34.36 25.26 34.19 25.35 34.06 25.49C33.94 25.64 33.88 25.82 33.89 26.01C33.9 26.2 33.99 26.37 34.13 26.5C34.27 26.62 34.45 26.69 34.64 26.68C38.66 26.67 39.54 31.11 38.18 36.06C38.15 36.15 38.15 36.24 38.16 36.34C38.18 36.43 38.21 36.52 38.26 36.6C38.3 36.68 38.37 36.75 38.44 36.81C38.52 36.86 38.61 36.91 38.7 36.93Z" fill="#4D2A14" fill-opacity="1.000000" fill-rule="nonzero"/>
		<path id="Vector" d="M32.54 29.88C30.69 30.21 27.22 31.85 27.38 35.76C27.47 36.76 27.21 37.75 26.64 38.58C26.08 39.4 25.24 40 24.28 40.27C24.1 40.32 23.94 40.44 23.85 40.6C23.75 40.76 23.72 40.96 23.77 41.14C23.81 41.32 23.92 41.48 24.09 41.58C24.25 41.68 24.44 41.71 24.62 41.67C25.91 41.32 27.03 40.53 27.79 39.45C28.56 38.36 28.92 37.03 28.81 35.71C28.67 32.09 32.62 31.33 32.79 31.3C32.98 31.26 33.14 31.16 33.25 31C33.35 30.84 33.39 30.65 33.36 30.47C33.33 30.28 33.23 30.12 33.07 30.01C32.92 29.9 32.73 29.85 32.54 29.88Z" fill="#4D2A14" fill-opacity="1.000000" fill-rule="nonzero"/>
	</g>
</svg>
