<?xml version="1.0" encoding="utf-8"?>
<!-- Generator: Adobe Illustrator 27.0.0, SVG Export Plug-In . SVG Version: 6.00 Build 0)  -->
<svg version="1.1" id="Шар_1" xmlns="http://www.w3.org/2000/svg" xmlns:xlink="http://www.w3.org/1999/xlink" x="0px" y="0px"
	 viewBox="0 0 19.7 19.6" style="enable-background:new 0 0 19.7 19.6;" xml:space="preserve">
<path id="Vector" d="M19.5,3.3c0.1,0.1,0.1,0.2,0.2,0.2c0,0.1,0.1,0.2,0.1,0.3l-0.2,15c0,0.2-0.1,0.4-0.2,0.5
	c-0.1,0.1-0.3,0.2-0.5,0.2L3.7,19.7c-0.1,0-0.2,0-0.3,0c-0.1,0-0.2-0.1-0.2-0.2c-0.1-0.1-0.1-0.1-0.2-0.2C3,19.2,3,19.1,3,19
	c0-0.1,0-0.2,0.1-0.3c0-0.1,0.1-0.2,0.2-0.2c0.1-0.1,0.1-0.1,0.2-0.2c0.1,0,0.2,0,0.3,0l14.4-0.2l0.2-14.4c0-0.1,0-0.3,0.1-0.4
	c0.1-0.1,0.2-0.2,0.3-0.2c0.1-0.1,0.3-0.1,0.4,0C19.3,3.1,19.4,3.2,19.5,3.3z"/>
<path id="Vector_00000103948435796290441140000010173112240703467140_" d="M1.1,0.1l18.3,18.3c0.1,0.1,0.1,0.2,0.1,0.4
	c0,0.2-0.1,0.3-0.2,0.5c-0.1,0.1-0.3,0.2-0.5,0.2c-0.2,0-0.3,0-0.4-0.1L0.1,1.1C0,1,0,0.9,0,0.7c0-0.2,0.1-0.3,0.2-0.5
	C0.4,0.1,0.5,0,0.7,0C0.9,0,1,0,1.1,0.1z"/>
</svg>
