<svg width="26.950195" height="23.235718" viewBox="0 0 26.9502 23.2357" fill="none" xmlns="http://www.w3.org/2000/svg" xmlns:xlink="http://www.w3.org/1999/xlink">
	<desc>
			Created with Pixso.
	</desc>
	<defs/>
	<path id="Vector" d="M11.2 23.23C11.1 23.23 11.01 23.21 10.92 23.17C10.83 23.14 10.75 23.08 10.68 23.01L0.2 12.14C0.07 12.01 0 11.83 0 11.64C0 11.46 0.07 11.28 0.2 11.15L10.73 0.23C10.79 0.16 10.87 0.1 10.96 0.06C11.04 0.02 11.14 0 11.23 0C11.33 -0.01 11.42 0.01 11.51 0.04C11.6 0.08 11.68 0.13 11.75 0.19C11.82 0.26 11.88 0.34 11.91 0.43C11.95 0.52 11.97 0.61 11.97 0.71C11.97 0.8 11.95 0.9 11.92 0.99C11.88 1.07 11.82 1.15 11.75 1.22L1.7 11.64L11.71 22.02C11.81 22.12 11.87 22.25 11.9 22.39C11.92 22.53 11.91 22.67 11.85 22.8C11.8 22.93 11.71 23.04 11.59 23.11C11.47 23.19 11.34 23.23 11.2 23.23Z" fill="#111111" fill-opacity="1.000000" fill-rule="nonzero"/>
	<path id="Vector" d="M26.41 12.36L0.53 12.36C0.39 12.36 0.25 12.28 0.15 12.15C0.05 12.01 0 11.83 0 11.64C0 11.46 0.05 11.27 0.15 11.14C0.25 11.01 0.39 10.93 0.53 10.93L26.41 10.93C26.55 10.93 26.69 11.01 26.79 11.14C26.89 11.27 26.95 11.46 26.95 11.64C26.95 11.83 26.89 12.01 26.79 12.15C26.69 12.28 26.55 12.36 26.41 12.36Z" fill="#111111" fill-opacity="1.000000" fill-rule="nonzero"/>
</svg>
