<?xml version="1.0" encoding="utf-8"?>
<!-- Generator: Adobe Illustrator 27.0.0, SVG Export Plug-In . SVG Version: 6.00 Build 0)  -->
<svg version="1.1" id="Шар_1" xmlns="http://www.w3.org/2000/svg" xmlns:xlink="http://www.w3.org/1999/xlink" x="0px" y="0px"
	 viewBox="0 0 27 23.2" style="enable-background:new 0 0 27 23.2;" xml:space="preserve">
<style type="text/css">
	.st0{fill:#111111;}
</style>
<path id="Vector" class="st0" d="M15.4,23.1c-0.1-0.1-0.2-0.2-0.3-0.3c-0.1-0.1-0.1-0.3,0-0.4c0-0.1,0.1-0.3,0.2-0.4l10-10.4
	l-10-10.4C15.1,1.2,15.1,1.1,15,1C15,0.9,15,0.8,15,0.7c0-0.1,0-0.2,0.1-0.3c0-0.1,0.1-0.2,0.2-0.2c0.1-0.1,0.1-0.1,0.2-0.2
	c0.1,0,0.2,0,0.3,0c0.1,0,0.2,0,0.3,0.1c0.1,0,0.2,0.1,0.2,0.2l10.5,10.9c0.1,0.1,0.2,0.3,0.2,0.5c0,0.2-0.1,0.4-0.2,0.5L16.3,23
	c-0.1,0.1-0.1,0.1-0.2,0.2c-0.1,0-0.2,0.1-0.3,0.1C15.6,23.2,15.5,23.2,15.4,23.1z"/>
<path id="Vector_00000019643324618363817970000000370142453087534487_" class="st0" d="M0.2,12.2C0.1,12,0,11.8,0,11.6
	c0-0.2,0.1-0.4,0.2-0.5c0.1-0.1,0.2-0.2,0.4-0.2h25.9c0.1,0,0.3,0.1,0.4,0.2s0.1,0.3,0.1,0.5c0,0.2,0,0.4-0.1,0.5
	c-0.1,0.1-0.2,0.2-0.4,0.2H0.5C0.4,12.4,0.3,12.3,0.2,12.2z"/>
</svg>
