<svg width="18.000000" height="18.000000" viewBox="0 0 18 18" fill="none" xmlns="http://www.w3.org/2000/svg" xmlns:xlink="http://www.w3.org/1999/xlink">
	<desc>
			Created with Pixso.
	</desc>
	<defs/>
	<path id="Vector" d="M12.2 10.58L9.69 8.7L9.69 4.87C9.69 4.48 9.38 4.17 9 4.17C8.61 4.17 8.3 4.48 8.3 4.87L8.3 9.05C8.3 9.27 8.4 9.48 8.58 9.61L11.37 11.7C11.49 11.79 11.64 11.84 11.78 11.84C12 11.84 12.2 11.74 12.34 11.56C12.57 11.25 12.51 10.82 12.2 10.58Z" fill="#000000"  fill-rule="nonzero"/>
	<path id="Vector" d="M9 0C4.03 0 0 4.03 0 9C0 13.96 4.03 18 9 18C13.96 18 18 13.96 18 9C18 4.03 13.96 0 9 0ZM9 16.6C4.8 16.6 1.39 13.19 1.39 9C1.39 4.8 4.8 1.39 9 1.39C13.19 1.39 16.6 4.8 16.6 9C16.6 13.19 13.19 16.6 9 16.6Z" fill="#000000"  fill-rule="nonzero"/>
</svg>
