<svg width="16.000000" height="15.992493" viewBox="0 0 16 15.9925" fill="none" xmlns="http://www.w3.org/2000/svg" xmlns:xlink="http://www.w3.org/1999/xlink">
	<desc>
			Created with Pixso.
	</desc>
	<defs/>
	<path id="Vector" d="M15.57 6.76C15.3 6.44 15.09 6.07 14.95 5.68C14.84 5.34 14.71 5.02 14.55 4.7C14.37 4.33 14.26 3.92 14.22 3.5C14.17 3.06 13.97 2.65 13.65 2.33C13.34 2.02 12.92 1.81 12.48 1.76C12.06 1.72 11.66 1.61 11.28 1.43C10.97 1.28 10.64 1.14 10.31 1.03C9.91 0.89 9.55 0.68 9.23 0.41C8.87 0.14 8.44 -0.01 7.99 0C7.55 0 7.12 0.14 6.76 0.41C6.44 0.68 6.08 0.89 5.68 1.03C5.35 1.14 5.03 1.28 4.71 1.43C4.33 1.61 3.93 1.72 3.51 1.76C3.07 1.81 2.65 2.01 2.34 2.33C2.02 2.65 1.82 3.06 1.77 3.5C1.73 3.92 1.62 4.33 1.44 4.7C1.28 5.02 1.15 5.34 1.04 5.68C0.9 6.07 0.69 6.43 0.42 6.76C0.15 7.11 0 7.54 0 7.99C0 8.43 0.15 8.87 0.42 9.22C0.69 9.54 0.9 9.91 1.04 10.3C1.15 10.63 1.28 10.96 1.44 11.27C1.62 11.65 1.73 12.06 1.77 12.47C1.82 12.92 2.02 13.33 2.34 13.64C2.65 13.96 3.07 14.16 3.51 14.21C3.93 14.25 4.33 14.36 4.71 14.54C5.03 14.7 5.35 14.83 5.68 14.94C6.08 15.08 6.44 15.29 6.76 15.56C7.12 15.84 7.55 15.99 8 15.99C8.44 15.99 8.88 15.84 9.23 15.56C9.55 15.29 9.91 15.08 10.31 14.94C10.64 14.83 10.96 14.7 11.28 14.54C11.66 14.36 12.06 14.25 12.48 14.21C12.92 14.16 13.34 13.96 13.65 13.64C13.97 13.33 14.17 12.92 14.22 12.47C14.26 12.06 14.37 11.65 14.55 11.27C14.71 10.96 14.84 10.63 14.95 10.3C15.09 9.91 15.3 9.54 15.57 9.22C15.84 8.87 16 8.43 16 7.99C16 7.54 15.85 7.11 15.57 6.76ZM14.52 8.4C14.16 8.84 13.87 9.34 13.69 9.88C13.6 10.15 13.49 10.42 13.36 10.67C13.11 11.19 12.95 11.75 12.9 12.32C12.88 12.46 12.81 12.6 12.71 12.7C12.6 12.81 12.47 12.87 12.32 12.89C11.75 12.95 11.2 13.1 10.68 13.35C10.42 13.48 10.16 13.59 9.89 13.68C9.35 13.87 8.85 14.15 8.4 14.51C8.29 14.6 8.14 14.65 8 14.65C7.85 14.65 7.7 14.61 7.59 14.51C7.15 14.15 6.64 13.87 6.1 13.68C5.83 13.59 5.57 13.48 5.31 13.35C4.79 13.1 4.24 12.95 3.67 12.89C3.52 12.87 3.39 12.81 3.28 12.7C3.18 12.6 3.11 12.46 3.09 12.31C3.04 11.75 2.88 11.19 2.63 10.68C2.51 10.42 2.4 10.15 2.3 9.88C2.12 9.34 1.83 8.84 1.47 8.39C1.38 8.28 1.33 8.13 1.33 7.99C1.33 7.84 1.38 7.7 1.47 7.58C1.83 7.14 2.12 6.64 2.3 6.09C2.39 5.82 2.5 5.56 2.63 5.3C2.88 4.78 3.04 4.23 3.09 3.66C3.11 3.51 3.18 3.38 3.28 3.27C3.39 3.17 3.52 3.1 3.67 3.09C4.24 3.03 4.79 2.87 5.31 2.63C5.57 2.5 5.83 2.39 6.1 2.3C6.64 2.11 7.15 1.83 7.59 1.46C7.7 1.37 7.85 1.32 7.99 1.32C8.14 1.32 8.29 1.37 8.4 1.46C8.84 1.82 9.35 2.11 9.89 2.3C10.16 2.39 10.43 2.5 10.68 2.62C11.2 2.87 11.75 3.03 12.32 3.08C12.47 3.1 12.6 3.17 12.71 3.27C12.81 3.38 12.88 3.51 12.9 3.66C12.95 4.23 13.11 4.78 13.36 5.3C13.49 5.56 13.6 5.82 13.69 6.09C13.87 6.64 14.16 7.14 14.52 7.58C14.61 7.7 14.66 7.84 14.66 7.99C14.66 8.14 14.61 8.28 14.52 8.4Z" fill="#4D2A14" fill-opacity="1.000000" fill-rule="nonzero"/>
	<path id="Vector" d="M9.52 6.18L7.8 7.91C7.68 8.03 7.51 8.1 7.33 8.1C7.15 8.1 6.98 8.03 6.86 7.91L6.47 7.52C6.34 7.39 6.17 7.33 6 7.33C5.82 7.33 5.66 7.4 5.53 7.52C5.41 7.65 5.34 7.82 5.34 7.99C5.34 8.16 5.4 8.33 5.52 8.46L5.91 8.85C6.29 9.22 6.8 9.43 7.33 9.43C7.86 9.43 8.37 9.22 8.74 8.85L10.47 7.13C10.59 7 10.66 6.83 10.65 6.66C10.65 6.48 10.58 6.31 10.46 6.19C10.33 6.07 10.17 6 9.99 6C9.82 5.99 9.65 6.06 9.52 6.18Z" fill="#4D2A14" fill-opacity="1.000000" fill-rule="nonzero"/>
</svg>
