<svg width="18.000000" height="23.937897" viewBox="0 0 18 23.9379" fill="none" xmlns="http://www.w3.org/2000/svg" xmlns:xlink="http://www.w3.org/1999/xlink">
	<desc>
			Created with Pixso.
	</desc>
	<defs/>
	<path id="Vector" d="M10.11 23.4C12.51 20.39 18 13.09 18 9C18 4.03 13.96 0 9 0C4.03 0 0 4.03 0 9C0 13.09 5.48 20.39 7.88 23.4C8.46 24.11 9.53 24.11 10.11 23.4ZM9 6C9.79 6 10.55 6.31 11.12 6.87C11.68 7.44 12 8.2 12 9C12 9.79 11.68 10.55 11.12 11.12C10.55 11.68 9.79 12 9 12C8.2 12 7.44 11.68 6.87 11.12C6.31 10.55 6 9.79 6 9C6 8.2 6.31 7.44 6.87 6.87C7.44 6.31 8.2 6 9 6Z" fill="#11141A" fill-opacity="1.000000" fill-rule="nonzero"/>
</svg>
