<svg width="18.000000" height="18.000000" viewBox="0 0 18 18" fill="none" xmlns="http://www.w3.org/2000/svg" xmlns:xlink="http://www.w3.org/1999/xlink">
	<desc>
			Created with Pixso.
	</desc>
	<defs/>
	<path id="Vector" d="M9 18C6.59 18 4.33 17.06 2.63 15.36C0.93 13.66 0 11.4 0 9C0 6.59 0.93 4.33 2.63 2.63C4.33 0.93 6.59 0 9 0C11.4 0 13.66 0.93 15.36 2.63C17.06 4.33 18 6.59 18 9C18 11.4 17.06 13.66 15.36 15.36C13.66 17.06 11.4 18 9 18ZM9 1.12C4.65 1.12 1.12 4.65 1.12 9C1.12 13.34 4.65 16.87 9 16.87C13.34 16.87 16.87 13.34 16.87 9C16.87 4.65 13.34 1.12 9 1.12Z" fill="#000000" fill-rule="nonzero"/>
	<path id="Vector" d="M9 8.43C8.22 8.43 7.59 7.8 7.59 7.03C7.59 6.25 8.22 5.62 9 5.62C9.77 5.62 10.4 6.25 10.4 7.03C10.4 7.34 10.65 7.59 10.96 7.59C11.27 7.59 11.53 7.34 11.53 7.03C11.53 5.82 10.68 4.82 9.56 4.56L9.56 3.93C9.56 3.62 9.31 3.37 9 3.37C8.68 3.37 8.43 3.62 8.43 3.93L8.43 4.56C7.31 4.82 6.46 5.82 6.46 7.03C6.46 8.42 7.6 9.56 9 9.56C9.77 9.56 10.4 10.19 10.4 10.96C10.4 11.74 9.77 12.37 9 12.37C8.22 12.37 7.59 11.74 7.59 10.96C7.59 10.65 7.34 10.4 7.03 10.4C6.72 10.4 6.46 10.65 6.46 10.96C6.46 12.17 7.31 13.17 8.43 13.43L8.43 14.06C8.43 14.37 8.68 14.62 9 14.62C9.31 14.62 9.56 14.37 9.56 14.06L9.56 13.43C10.68 13.17 11.53 12.17 11.53 10.96C11.53 9.57 10.39 8.43 9 8.43Z" fill="#000000"  fill-rule="nonzero"/>
</svg>
