<?xml version="1.0" encoding="utf-8"?>
<!-- Generator: Adobe Illustrator 24.0.1, SVG Export Plug-In . SVG Version: 6.00 Build 0)  -->
<svg version="1.1" id="Слой_1" xmlns="http://www.w3.org/2000/svg" xmlns:xlink="http://www.w3.org/1999/xlink" x="0px" y="0px"
	 viewBox="0 0 20 20" style="enable-background:new 0 0 20 20;" xml:space="preserve">
<path d="M16.6,2.5h-3.4V1.9c0-1-0.8-1.9-1.9-1.9H8.8c-1,0-1.9,0.8-1.9,1.9v0.6H3.4c-0.9,0-1.6,0.7-1.6,1.6v2.2
	c0,0.3,0.3,0.6,0.6,0.6h0.3l0.5,11.3c0,1,0.9,1.8,1.9,1.8h9.5c1,0,1.8-0.8,1.9-1.8l0.5-11.3h0.3c0.3,0,0.6-0.3,0.6-0.6V4.1
	C18.1,3.2,17.4,2.5,16.6,2.5z M8.1,1.9c0-0.3,0.3-0.6,0.6-0.6h2.5c0.3,0,0.6,0.3,0.6,0.6v0.6H8.1V1.9z M3.1,4.1
	c0-0.2,0.1-0.3,0.3-0.3h13.1c0.2,0,0.3,0.1,0.3,0.3v1.6c-0.2,0-13,0-13.8,0V4.1z M15.4,18.2c0,0.3-0.3,0.6-0.6,0.6H5.3
	c-0.3,0-0.6-0.3-0.6-0.6L4.1,6.9h11.8L15.4,18.2z"/>
<path d="M10,17.5c0.3,0,0.6-0.3,0.6-0.6V8.8c0-0.3-0.3-0.6-0.6-0.6c-0.3,0-0.6,0.3-0.6,0.6v8.1C9.4,17.2,9.7,17.5,10,17.5z"/>
<path d="M13.1,17.5c0.3,0,0.6-0.3,0.6-0.6V8.8c0-0.3-0.3-0.6-0.6-0.6s-0.6,0.3-0.6,0.6v8.1C12.5,17.2,12.8,17.5,13.1,17.5z"/>
<path d="M6.9,17.5c0.3,0,0.6-0.3,0.6-0.6V8.8c0-0.3-0.3-0.6-0.6-0.6S6.2,8.4,6.2,8.8v8.1C6.2,17.2,6.5,17.5,6.9,17.5z"/>
</svg>
