<svg width="18.637695" height="20.000000" viewBox="0 0 18.6377 20" fill="none" xmlns="http://www.w3.org/2000/svg" xmlns:xlink="http://www.w3.org/1999/xlink">
	<desc>
			Created with Pixso.
	</desc>
	<defs/>
	<path id="Vector" d="M9.31 11.26C3.3 11.26 0 14.1 0 19.27C0 19.67 0.32 20 0.72 20L17.9 20C18.31 20 18.63 19.67 18.63 19.27C18.63 14.1 15.32 11.26 9.31 11.26ZM1.48 18.54C1.77 14.68 4.4 12.72 9.31 12.72C14.23 12.72 16.86 14.68 17.15 18.54L1.48 18.54Z" fill="#000000" fill-opacity="1.000000" fill-rule="nonzero"/>
	<path id="Vector" d="M9.31 0C6.55 0 4.47 2.12 4.47 4.93C4.47 7.83 6.64 10.19 9.31 10.19C11.98 10.19 14.16 7.83 14.16 4.93C14.16 2.12 12.07 0 9.31 0ZM9.31 8.73C7.45 8.73 5.93 7.03 5.93 4.93C5.93 2.92 7.35 1.45 9.31 1.45C11.24 1.45 12.7 2.95 12.7 4.93C12.7 7.03 11.18 8.73 9.31 8.73Z" fill="#000000" fill-opacity="1.000000" fill-rule="nonzero"/>
</svg>
