<?xml version="1.0" encoding="UTF-8"?>
<svg id="_Шар_2" data-name="Шар 2" xmlns="http://www.w3.org/2000/svg" viewBox="0 0 192 192">
  <g id="_Шар_1-2" data-name="Шар 1">
    <path d="M186.32,32.79c7.5-7.5,7.5-19.67,0-27.17-7.5-7.5-19.67-7.5-27.17,0l-63.15,63.21L32.79,5.68C25.29-1.81,13.12-1.81,5.62,5.68s-7.5,19.67,0,27.17l63.21,63.15L5.68,159.21c-7.5,7.5-7.5,19.67,0,27.17,7.5,7.5,19.67,7.5,27.17,0l63.15-63.21,63.21,63.15c7.5,7.5,19.67,7.5,27.17,0,7.5-7.5,7.5-19.67,0-27.17l-63.21-63.15,63.15-63.21Z"/>
  </g>
</svg>